<svg width="1064" height="1064" viewBox="0 0 1064 1064" fill="none" xmlns="http://www.w3.org/2000/svg">
<rect width="1064" height="1064" fill="#8023C3"/>
<path d="M722.523 414.812C711.445 396.824 707.619 375.381 711.331 354.595C715.043 333.809 710.589 313.079 697.169 295.091C675.954 266.653 637.151 256.46 604.744 270.907C595.493 275.019 587.555 280.644 580.988 287.325C576.249 292.522 570.452 296.89 564.171 300.773C534.019 319.332 496.073 314.536 471.432 291.437L471.346 291.551C446.705 267.909 408.388 262.855 377.979 281.586C348.313 299.831 335.407 334.979 344.059 366.987L343.888 367.072C354.737 400.079 342.032 437.426 311.138 456.413C305.199 460.068 298.889 463.18 292.521 465.065C287.924 466.464 283.385 468.32 279.016 470.633C239.499 491.676 226.451 541.243 249.521 578.79C259.657 595.265 274.99 606.543 292.122 611.854C312.537 618.192 330.296 631.013 341.489 649.201C352.682 667.389 356.108 689.031 352.567 710.103C349.569 727.777 352.739 746.565 362.875 763.04C385.945 800.529 436.027 811.265 472.603 785.568C504.153 763.382 514.375 722.238 496.787 687.918C489.42 673.527 478.313 662.62 465.35 655.511C441.338 642.576 420.694 622.475 407.074 595.95C375.581 534.733 393.855 458.555 449.703 418.324C516.631 370.099 609.141 389.486 651.57 458.469C665.247 480.683 671.957 505.238 672.357 529.537C672.985 541.957 676.668 554.377 683.635 565.713C707.391 604.316 759.756 614.538 796.532 585.871C824.885 563.771 833.964 524.055 818.118 491.79C808.124 471.432 790.736 457.755 771.063 451.874C750.876 445.849 733.545 432.715 722.495 414.784L722.523 414.812Z" fill="white"/>
<path d="M497.218 463.496C454.931 485.11 442.083 539.046 470.064 577.421C492.078 607.601 533.594 617.48 566.829 600.491C609.116 578.877 621.964 524.941 593.983 486.566C571.969 456.386 530.453 446.507 497.218 463.496Z" fill="white"/>
<path d="M649.062 799.102C691.496 799.102 725.897 764.701 725.897 722.267C725.897 679.832 691.496 645.432 649.062 645.432C606.627 645.432 572.227 679.832 572.227 722.267C572.227 764.701 606.627 799.102 649.062 799.102Z" fill="white"/>
</svg>
